<?xml version="1.0" standalone="no"?><!-- Generator: Gravit.io --><svg xmlns="http://www.w3.org/2000/svg" xmlns:xlink="http://www.w3.org/1999/xlink" style="isolation:isolate" viewBox="0 0 686 686" width="686" height="686"><defs><clipPath id="_clipPath_zvCQ0oX2DMrpNbz3F7PyDDldCnRXlBzg"><rect width="686" height="686"/></clipPath></defs><g clip-path="url(#_clipPath_zvCQ0oX2DMrpNbz3F7PyDDldCnRXlBzg)"><g id="Divider"><g id="XMLID_23_"><path d=" M 505.147 390 L 385.447 414.9 C 379.747 415.8 374.547 416.6 370.347 415.6 C 369.547 416.5 369.147 418 369.447 419.4 C 369.747 420.9 370.647 422 371.847 422.6 C 375.547 419.8 381.447 418.4 387.647 416.8 C 393.947 415.1 415.447 410.7 431.647 407.2 L 505.547 391.8 L 505.147 390 Z  M 339.947 421.2 C 339.447 421.3 339.047 421.5 338.647 421.7 C 341.547 421.8 342.847 428 340.247 429.2 C 340.747 429.2 341.147 429.2 341.647 429.1 C 347.047 428 345.347 420.1 339.947 421.2 Z  M 337.647 422.2 C 333.947 425 328.047 426.4 321.847 428 C 321.547 428.1 321.147 428.2 320.747 428.3 L 205.647 452.2 L 205.947 453.9 L 301.947 433.9 C 310.947 432.1 318.747 430.6 322.247 430 C 328.547 429 334.447 428 339.047 429.1 C 339.847 428.2 340.247 426.7 339.947 425.3 C 339.647 423.9 338.747 422.7 337.647 422.2 Z  M 347.347 421.9 C 346.247 422.1 345.647 423.1 345.847 424.1 C 346.047 425.1 347.047 425.8 348.147 425.5 C 349.247 425.3 349.847 424.3 349.647 423.3 C 349.447 422.3 348.447 421.7 347.347 421.9 Z  M 354.047 418.8 C 351.947 419.2 350.647 421.2 351.047 423.2 C 351.447 425.2 353.447 426.5 355.547 426 C 357.647 425.6 358.947 423.6 358.547 421.6 C 358.147 419.6 356.047 418.4 354.047 418.8 Z  M 361.447 419.1 C 360.347 419.3 359.747 420.3 359.947 421.3 C 360.147 422.3 361.147 423 362.247 422.8 C 363.347 422.6 363.947 421.6 363.747 420.6 C 363.447 419.6 362.447 418.9 361.447 419.1 Z  M 369.347 415.5 C 368.847 415.5 368.447 415.5 367.947 415.6 C 362.547 416.7 364.147 424.7 369.547 423.5 C 370.047 423.4 370.447 423.2 370.847 423 C 367.947 422.9 366.747 416.7 369.347 415.5 Z " fill="rgb(0,0,0)"/></g></g><g id="Divider_1_"><g id="XMLID_12_"><path d=" M 505.147 439.3 L 385.447 464.2 C 379.847 465.1 374.547 465.9 370.447 464.9 C 369.647 465.8 369.247 467.3 369.547 468.7 C 369.847 470.2 370.747 471.3 371.947 471.9 C 375.647 469.1 381.547 467.7 387.747 466.1 C 394.047 464.4 415.547 460 431.647 456.5 L 505.547 441.1 L 505.147 439.3 Z  M 339.947 470.5 C 339.447 470.6 339.047 470.8 338.647 471 C 341.547 471.1 342.847 477.3 340.247 478.5 C 340.747 478.5 341.147 478.5 341.647 478.4 C 347.047 477.3 345.347 469.4 339.947 470.5 Z  M 347.347 471.2 C 346.247 471.4 345.647 472.4 345.847 473.4 C 346.047 474.4 347.047 475.1 348.147 474.8 C 349.247 474.6 349.847 473.6 349.647 472.6 C 349.447 471.6 348.447 471 347.347 471.2 Z  M 337.647 471.5 C 333.947 474.3 328.047 475.7 321.847 477.3 C 321.547 477.4 321.147 477.5 320.747 477.6 L 205.647 501.5 L 205.947 503.2 L 301.947 483.2 C 310.947 481.4 318.747 479.9 322.247 479.3 C 328.547 478.3 334.447 477.3 339.047 478.4 C 339.847 477.5 340.247 476 339.947 474.6 C 339.647 473.2 338.747 472 337.647 471.5 Z  M 361.447 468.4 C 360.347 468.6 359.747 469.6 359.947 470.6 C 360.147 471.6 361.147 472.3 362.247 472.1 C 363.347 471.9 363.947 470.9 363.747 469.9 C 363.447 468.9 362.447 468.2 361.447 468.4 Z  M 369.347 464.8 C 368.847 464.8 368.447 464.8 367.947 464.9 C 362.547 466 364.147 474 369.547 472.8 C 370.047 472.7 370.447 472.5 370.847 472.3 C 367.947 472.2 366.747 466.1 369.347 464.8 Z  M 354.047 468.1 C 351.947 468.5 350.647 470.5 351.047 472.5 C 351.447 474.5 353.447 475.8 355.547 475.3 C 357.647 474.9 358.947 472.9 358.547 470.9 C 358.147 469 356.047 467.7 354.047 468.1 Z " fill="rgb(0,0,0)"/></g></g><g id="XMLID_107_"><path d=" M 217.747 476.2 C 216.947 476.4 216.847 476 216.847 475.2 C 216.847 474.9 216.947 474.7 216.947 474.5 C 216.247 474.9 215.547 475.4 214.847 475.9 C 213.947 476.5 210.447 479.6 210.447 480.5 C 210.447 480.7 210.847 480.6 210.947 480.6 C 212.347 480.3 213.547 479.2 214.847 479 C 215.047 479 215.247 478.9 215.347 478.9 C 215.747 479 216.447 480 216.447 480.4 C 216.447 480.8 215.847 481.4 215.547 481.7 C 214.847 482.5 213.947 482.7 213.147 483.3 C 212.047 484.1 207.647 487.4 207.647 488.6 C 207.647 490.4 209.747 490.2 211.047 489.9 C 214.847 489.1 218.447 484.9 220.747 482.6 C 220.947 482.5 221.147 482.3 221.347 482.2 C 222.047 482.1 222.047 483.6 222.047 484.1 C 222.047 484.5 222.047 485.1 221.847 485.5 C 221.647 485.9 221.147 486.5 220.747 486.9 C 218.247 489.4 214.447 492.7 210.247 493.5 C 207.147 494.1 203.147 494 203.147 490.2 C 203.147 487.3 205.647 485.2 208.047 483.8 C 206.647 483.4 206.447 482.5 206.447 481.1 C 206.447 476 215.047 470.6 219.447 469.8 C 220.347 469.6 222.047 469.7 222.047 470.8 C 222.247 473.3 220.047 475.7 217.747 476.2 Z " fill="rgb(0,0,0)"/><path d=" M 235.747 476.9 C 235.647 478.5 235.547 480 235.547 481.2 C 235.547 483.3 235.747 484.6 236.247 484.5 C 238.447 483.8 241.747 478.9 242.247 478.4 C 242.447 478.2 242.647 478.1 242.747 478.1 C 243.447 478 243.447 478.9 243.447 480.3 C 243.447 480.7 243.447 481.1 243.347 481.4 C 242.647 482.9 238.647 487.9 235.247 488.6 C 232.047 489.2 231.547 486.7 231.547 484.2 C 231.547 483.3 231.647 482.4 231.747 481.6 C 229.747 484.1 227.047 487.6 224.747 490.9 C 224.647 491.1 224.347 491.3 224.047 491.3 C 223.047 491.5 221.647 490.8 221.647 489.7 C 221.647 489.5 221.647 489.3 221.747 489.1 C 222.147 487.7 226.647 481.8 232.047 476.1 C 231.947 475 231.947 473.5 231.947 471.7 C 231.947 471.6 231.847 471.5 231.847 471.5 C 231.447 471.6 230.347 473.3 229.647 473.4 C 228.847 473.6 228.347 472 228.347 471.5 C 228.347 471.4 228.347 471.3 228.447 471.2 C 228.847 470.2 231.447 466.4 234.047 465.8 C 234.547 465.7 236.047 466.1 236.047 466.9 C 236.147 468.4 236.247 469.9 236.247 471.4 C 237.947 469.2 240.647 465.9 244.247 462.7 C 244.447 462.5 244.647 462.4 244.947 462.4 C 245.547 462.3 246.247 462.5 246.447 462.6 C 246.847 462.8 247.447 463.2 247.447 463.7 C 247.447 463.9 247.347 464.2 247.047 464.5 C 246.047 465.3 239.347 472.9 235.747 476.9 Z " fill="rgb(0,0,0)"/><path d=" M 250.947 485.4 C 249.347 485.7 248.147 485 248.147 483 C 243.047 491.8 237.547 502.1 237.047 502.7 C 236.747 503.1 236.647 503.3 236.447 503.3 C 236.247 503.3 234.647 502.9 234.547 501.5 C 234.547 500.5 234.747 499.8 235.147 498.9 C 236.047 497.3 258.047 456.7 259.347 455.6 C 259.747 455.3 260.047 455.1 260.247 455.1 C 260.447 455.1 260.547 455.1 260.747 455 C 260.847 455 261.047 454.9 261.247 454.9 C 261.547 454.8 261.647 454.9 261.847 455.5 C 261.947 455.8 262.047 455.9 262.047 456.1 C 262.047 456.3 261.947 456.6 261.547 457.2 L 254.147 469.9 C 254.147 469.9 260.647 462.3 264.747 461.4 C 266.547 461 267.647 462 267.647 463.8 C 267.647 468.3 259.247 483.7 250.947 485.4 Z  M 262.547 466 C 260.547 466.4 252.747 475.7 249.447 480.7 C 249.947 481.2 250.547 481.3 251.247 481.2 C 255.447 480.4 263.047 470.2 263.047 466.4 C 263.047 466.2 262.847 466 262.547 466 Z " fill="rgb(0,0,0)"/><path d=" M 273.847 472 C 273.747 472.9 273.447 473.7 273.447 474.6 C 273.447 476.3 274.647 476.9 276.247 476.6 C 279.447 475.9 283.047 469.9 284.147 469.7 C 284.847 469.6 284.847 471 284.847 471.4 L 284.847 471.9 C 284.847 473.1 284.247 473.8 283.647 474.6 C 281.547 477.4 277.747 480.1 274.547 480.7 C 271.147 481.4 269.547 479.5 269.547 476.2 C 269.547 469.1 274.247 457.7 278.347 451 C 281.547 445.9 286.447 438.6 290.047 437.9 C 291.647 437.6 293.147 438.3 293.147 440 C 293.047 445.9 278.247 466.3 273.847 472 Z  M 288.447 442.1 C 287.047 442.4 279.747 454.4 278.747 456.5 C 277.347 459.4 275.847 463 274.947 466 C 277.447 462.5 288.747 445.3 288.747 442.5 C 288.747 442.2 288.647 442.1 288.447 442.1 Z " fill="rgb(0,0,0)"/><path d=" M 286.847 478 C 284.347 478.5 282.647 476.9 282.647 474.6 C 282.647 465.2 292.947 455.2 297.747 454.3 C 299.347 454 300.147 454.6 300.147 454.9 L 300.147 455.1 C 300.547 455 300.847 454.9 301.047 454.9 C 302.247 454.7 303.747 455.2 303.747 457.1 C 303.647 462.1 294.347 476.4 286.847 478 Z  M 298.447 458.7 C 297.947 458.8 297.547 458.6 297.547 457.6 C 295.147 458.9 292.147 461.5 289.847 465.1 C 287.647 468.4 286.547 471.3 286.547 472.8 C 286.547 473.7 286.947 474.2 287.647 474 C 288.847 473.8 291.847 471.6 295.047 467.1 C 297.847 463 299.047 460.2 299.047 459.1 C 299.047 458.8 298.947 458.6 298.647 458.7 L 298.447 458.7 Z " fill="rgb(0,0,0)"/><path d=" M 321.847 458.8 C 321.447 459.3 321.047 459.8 320.347 459.9 C 319.247 460.1 318.647 459.3 318.647 458.3 C 318.647 456.8 319.647 455.1 320.547 453.9 L 320.447 453.9 C 319.147 454.3 312.147 463 310.847 464.7 C 308.947 467.2 307.147 469.8 305.347 472.5 C 305.047 473 304.347 473.8 303.747 473.9 C 303.347 474 301.647 473.7 301.347 473.5 C 301.147 473.4 301.147 473.3 301.147 473.1 C 301.147 472.2 302.147 470.7 302.747 469.6 C 304.947 465.3 307.247 461 309.547 456.8 C 310.247 455.4 310.947 454 311.847 452.7 C 312.747 451.4 314.447 450.7 315.747 450.4 C 316.247 450.3 316.347 450.8 316.347 451.3 C 316.347 452.5 313.747 456.6 313.047 457.9 C 315.447 454.7 319.547 449.7 323.447 448.9 C 324.847 448.6 325.847 449.3 325.847 450.7 C 325.947 452.2 322.847 457.3 321.847 458.8 Z " fill="rgb(0,0,0)"/><path d=" M 337.947 451.9 C 337.147 452.1 337.047 451.7 337.047 450.9 C 337.047 450.6 337.147 450.4 337.147 450.2 C 336.447 450.6 335.747 451.1 335.047 451.6 C 334.147 452.2 330.647 455.3 330.647 456.2 C 330.647 456.4 331.047 456.3 331.147 456.3 C 332.547 456 333.747 454.9 335.047 454.7 C 335.247 454.7 335.447 454.6 335.547 454.6 C 335.947 454.7 336.647 455.7 336.647 456.1 C 336.647 456.5 336.047 457.1 335.747 457.4 C 335.047 458.2 334.147 458.4 333.347 459 C 332.247 459.8 327.847 463.1 327.847 464.3 C 327.847 466.1 329.947 465.9 331.247 465.6 C 335.047 464.8 338.647 460.6 340.947 458.3 C 341.147 458.2 341.347 458 341.547 457.9 C 342.247 457.8 342.247 459.3 342.247 459.8 C 342.247 460.2 342.247 460.8 342.047 461.2 C 341.847 461.6 341.347 462.2 340.947 462.6 C 338.447 465.1 334.647 468.4 330.447 469.2 C 327.347 469.8 323.347 469.7 323.347 465.9 C 323.347 463 325.847 460.9 328.247 459.5 C 326.847 459.1 326.647 458.2 326.647 456.8 C 326.647 451.7 335.247 446.3 339.647 445.5 C 340.547 445.3 342.247 445.4 342.247 446.5 C 342.547 449 340.247 451.4 337.947 451.9 Z " fill="rgb(0,0,0)"/><path d=" M 351.247 461.7 C 351.247 463.5 349.447 466.2 347.247 466.7 C 345.747 467 345.347 466.1 345.347 465.2 C 345.347 463.1 347.347 460.8 349.347 460.4 C 350.647 460.1 351.247 460.7 351.247 461.7 Z " fill="rgb(0,0,0)"/><path d=" M 369.447 455.9 C 367.647 460 363.147 462.9 360.347 463.5 C 358.047 464 355.647 462.3 355.647 460 C 355.647 457.4 361.347 448 361.347 447.6 C 361.347 447 360.247 446.7 360.247 446.1 C 360.247 445.7 364.247 440.5 366.447 440 C 367.347 439.8 368.347 440.9 368.347 441.7 C 368.347 442.2 362.947 452.6 362.147 454.1 C 361.547 455.3 360.247 457.4 360.247 458.6 C 360.247 459.3 360.947 459.3 361.547 459.2 C 364.647 458.6 368.047 452.7 368.847 452.5 C 369.547 452.4 369.547 454.2 369.547 454.7 C 369.647 455.1 369.647 455.5 369.447 455.9 Z  M 369.647 436.6 C 368.647 436.8 368.147 436.4 368.147 435.4 C 368.147 433.3 370.247 430.6 372.347 430.2 C 373.247 430 373.847 430.4 373.847 431.4 C 373.847 433.3 371.547 436.2 369.647 436.6 Z " fill="rgb(0,0,0)"/><path d=" M 391.147 452.6 C 389.247 454.7 386.247 458 383.247 458.6 C 381.147 459 378.947 457.8 378.947 455.3 C 378.947 452 381.747 447.1 383.947 443.5 C 384.247 443.1 385.247 441.3 385.347 440.8 L 385.247 440.8 C 383.947 441.2 376.947 449.9 375.647 451.6 C 373.747 454.1 371.947 456.7 370.247 459.3 C 369.847 459.8 369.247 460.6 368.647 460.7 C 368.247 460.8 366.547 460.5 366.247 460.3 C 366.047 460.2 366.047 460.1 366.047 459.9 C 366.047 459 367.047 457.5 367.647 456.4 C 369.847 452.1 372.147 447.8 374.447 443.6 C 375.247 442.2 375.847 440.8 376.747 439.5 C 377.647 438.2 379.347 437.5 380.647 437.2 C 381.247 437.1 381.247 437.6 381.247 438.1 C 381.247 439.3 378.647 443.4 377.947 444.7 C 380.447 441.5 384.447 436.5 388.347 435.7 C 389.647 435.4 390.747 436.1 390.747 437.5 C 390.747 439.1 387.647 443.9 386.647 445.6 C 385.747 447.1 382.947 452 382.947 453.7 C 382.947 454.5 383.747 454.7 384.547 454.5 C 387.047 454 391.147 447.9 391.947 447.7 C 392.647 447.6 392.647 449.4 392.647 449.9 C 392.447 451 392.047 451.9 391.147 452.6 Z " fill="rgb(0,0,0)"/><path d=" M 413.447 448.1 C 411.547 450.2 408.547 453.5 405.547 454.1 C 403.447 454.5 401.247 453.3 401.247 450.8 C 401.247 447.5 404.047 442.6 406.247 439 C 406.547 438.6 407.547 436.8 407.647 436.3 L 407.547 436.3 C 406.247 436.7 399.247 445.4 397.947 447.1 C 396.047 449.6 394.247 452.2 392.547 454.8 C 392.147 455.3 391.547 456.1 390.947 456.2 C 390.547 456.3 388.847 456 388.547 455.8 C 388.347 455.7 388.347 455.6 388.347 455.4 C 388.347 454.5 389.347 453 389.947 451.9 C 392.147 447.6 394.447 443.3 396.747 439.1 C 397.447 437.7 398.147 436.3 399.047 435 C 399.947 433.7 401.647 433 402.947 432.7 C 403.547 432.6 403.547 433.1 403.547 433.6 C 403.547 434.8 400.947 438.9 400.247 440.2 C 402.747 437 406.747 432 410.647 431.2 C 411.947 430.9 413.047 431.6 413.047 433 C 413.047 434.6 409.947 439.4 408.947 441.1 C 408.047 442.6 405.247 447.5 405.247 449.2 C 405.247 450 406.047 450.2 406.847 450 C 409.347 449.5 413.447 443.4 414.247 443.2 C 414.947 443.1 414.947 444.9 414.947 445.4 C 414.647 446.5 414.347 447.4 413.447 448.1 Z " fill="rgb(0,0,0)"/><path d=" M 417.047 451.7 C 414.547 452.2 412.847 450.6 412.847 448.3 C 412.847 438.9 423.147 428.9 427.947 428 C 429.447 427.7 430.347 428.3 430.347 428.6 L 430.347 428.8 C 430.747 428.7 431.047 428.6 431.247 428.6 C 432.447 428.4 433.947 428.9 433.947 430.8 C 433.747 435.8 424.447 450.1 417.047 451.7 Z  M 428.547 432.4 C 428.047 432.5 427.647 432.3 427.647 431.3 C 425.247 432.6 422.247 435.2 419.947 438.8 C 417.747 442.1 416.647 445 416.647 446.5 C 416.647 447.4 417.047 447.9 417.747 447.7 C 418.947 447.5 421.947 445.3 425.147 440.8 C 427.947 436.7 429.147 433.9 429.147 432.8 C 429.147 432.5 429.047 432.3 428.747 432.4 L 428.547 432.4 Z " fill="rgb(0,0,0)"/><path d=" M 449.447 436.5 C 445.247 442.1 439.947 447.2 437.247 447.8 C 436.047 448.1 434.447 447.5 434.447 445.3 C 434.447 442.4 437.647 435.5 439.247 432.7 C 438.547 433.3 437.847 434 437.547 434 C 437.247 434.1 436.347 433.1 436.347 432.4 C 436.347 432.2 436.447 432.1 436.447 432 C 436.947 431.4 441.347 425.4 443.647 424.9 C 444.847 424.7 445.747 425.3 445.747 426.2 C 445.747 428.1 438.747 441 438.747 443.2 C 438.747 443.3 438.847 443.3 438.947 443.3 C 439.847 443.1 445.047 437.3 447.147 434.2 C 449.747 430.4 451.947 426.4 451.947 425.1 C 451.947 424.1 451.347 424.2 451.347 423.4 C 451.347 422.6 452.347 421.1 454.047 420.8 C 455.447 420.5 456.447 421.1 456.447 423.2 C 456.347 425.5 453.347 431.3 449.447 436.5 Z " fill="rgb(0,0,0)"/><path d=" M 479.347 432.6 C 479.347 433 479.347 433.5 479.147 433.7 C 478.447 435.2 474.447 440.2 471.047 440.9 C 468.347 441.4 467.147 439.5 467.147 437.4 C 467.147 436.5 467.347 435.7 467.647 434.8 C 464.847 439.1 460.647 442.9 458.047 443.4 C 455.847 443.8 454.247 442.5 454.047 440.7 C 453.947 440.3 453.947 439.9 453.947 439.4 C 453.947 431.7 463.647 421.6 469.447 420.5 C 471.447 420.1 472.547 420.6 472.847 421.4 C 473.747 419.9 474.147 419.7 475.147 419.5 C 476.247 419.3 477.147 419.5 477.147 420.4 C 477.147 420.8 477.047 421.3 476.747 421.6 C 476.347 422.1 472.047 430 471.147 434.8 C 471.047 435 471.047 435.3 471.047 435.5 C 471.047 436.1 471.247 436.9 471.847 436.8 C 473.947 436.4 477.547 431.1 477.947 430.6 C 478.147 430.4 478.347 430.3 478.547 430.3 C 478.847 430.2 479.047 430.4 479.047 430.7 C 479.247 431.1 479.347 431.9 479.347 432.6 Z  M 462.547 429.9 C 460.247 432.7 458.047 437.1 458.047 438.6 C 458.047 439 458.247 439.2 458.547 439.1 C 459.547 438.9 465.447 432.6 467.347 429.8 C 468.547 428.1 470.247 425.2 471.647 423.1 C 469.947 423.5 466.547 424.9 462.547 429.9 Z " fill="rgb(0,0,0)"/><path d=" M 487.847 413.2 C 487.847 413.2 483.947 414.5 483.347 414.6 L 483.147 414.6 C 482.447 414.7 481.047 414.8 481.047 413.8 C 481.047 413.4 481.647 412.9 481.847 412.4 C 482.147 411.5 484.247 410 485.047 409.7 C 486.147 409.4 487.247 409.1 488.347 408.9 C 490.747 408.3 488.247 408.9 490.647 408.3 C 491.747 406.5 492.847 404.5 494.147 402.8 C 494.447 402.3 494.547 402.2 495.047 402.1 C 495.447 402 495.847 401.8 496.247 401.7 C 496.847 401.6 496.847 401.8 497.347 401.7 C 497.647 401.6 497.947 402 497.947 402.3 C 497.947 402.7 495.747 406.5 495.347 407.2 C 495.647 407.1 497.247 406.7 497.947 406.5 C 498.547 406.4 499.147 406.3 499.347 406.3 C 499.947 406.4 500.147 407.1 500.747 407.4 C 501.047 407.6 501.147 407.7 501.147 408.1 C 501.147 409.1 499.847 409.8 499.047 410 C 496.647 410.7 494.847 411.3 492.447 412 C 490.547 415.2 482.947 429.8 482.647 432.4 C 482.547 432.8 482.547 433.1 482.547 433.4 C 482.547 434.4 482.947 434.6 483.847 434.4 C 486.347 433.9 490.847 427.8 491.447 427.7 C 492.147 427.6 492.147 429.4 492.147 429.9 C 492.147 430.9 491.747 431.5 490.947 432.4 C 489.247 434.2 485.947 437.9 482.947 438.5 C 482.647 438.6 482.447 438.6 482.247 438.6 C 479.647 438.6 478.247 437.7 478.247 434.4 C 478.247 430.4 485.447 417.3 487.847 413.2 Z " fill="rgb(0,0,0)"/><path d=" M 504.747 418.2 C 503.947 418.4 503.847 418 503.847 417.2 C 503.847 416.9 503.947 416.7 503.947 416.5 C 503.147 416.9 502.547 417.4 501.847 417.9 C 500.947 418.5 497.447 421.6 497.447 422.5 C 497.447 422.7 497.847 422.6 497.947 422.6 C 499.347 422.3 500.547 421.2 501.847 421 C 502.047 421 502.247 420.9 502.347 420.9 C 502.747 421 503.447 422 503.447 422.4 C 503.447 422.8 502.847 423.4 502.547 423.7 C 501.747 424.5 500.947 424.7 500.147 425.3 C 499.047 426.1 494.647 429.4 494.647 430.6 C 494.647 432.4 496.747 432.2 498.047 431.9 C 501.847 431.1 505.447 426.9 507.747 424.6 C 507.947 424.5 508.147 424.3 508.347 424.2 C 509.047 424.1 509.047 425.6 509.047 426.1 C 509.047 426.5 509.047 427.1 508.847 427.5 C 508.647 427.9 508.147 428.5 507.747 428.9 C 505.247 431.4 501.447 434.7 497.247 435.5 C 494.147 436.1 490.147 436 490.147 432.2 C 490.147 429.3 492.647 427.2 495.047 425.8 C 493.647 425.4 493.547 424.5 493.547 423.1 C 493.547 418 502.147 412.6 506.547 411.8 C 507.447 411.6 509.147 411.7 509.147 412.8 C 509.247 415.3 507.047 417.7 504.747 418.2 Z " fill="rgb(0,0,0)"/></g><g id="Shield"><g id="XMLID_11_"><path d=" M 352.947 507.3 C 336.047 507.3 323.247 514.2 323.247 514.2 C 323.247 514.2 322.447 546.3 322.447 553 C 322.447 564.3 353.447 582.5 353.647 581.8 C 353.647 581.8 384.047 564.1 384.047 552.8 C 384.047 539.4 384.047 514.2 384.047 514.2 C 384.047 514.2 370.047 507.3 352.947 507.3 Z  M 366.847 570 C 362.047 573.6 357.147 576.6 353.747 578.6 C 350.347 576.7 345.447 573.7 340.547 570.2 C 329.747 562.3 325.947 556.2 325.947 553.4 L 325.947 516.9 C 332.147 514.4 343.147 510.6 353.447 510.6 C 363.947 510.6 375.047 514.2 381.347 516.7 L 381.347 552.9 L 381.347 552.9 C 381.447 555.8 377.547 561.9 366.847 570 Z " fill-rule="evenodd" fill="rgb(0,0,0)"/></g></g><g id="XMLID_54_"><path d=" M 96.047 300.8 L 94.247 295.7 C 93.747 294.7 94.247 293.9 95.347 293.6 L 144.047 283.4 C 144.947 283.2 145.447 283.3 146.047 283.9 L 154.047 290.2 C 154.747 290.7 154.947 291.1 154.947 292.1 L 154.947 348.7 C 154.947 349.6 154.747 350.1 154.047 350.9 L 144.947 361.7 L 154.047 368.6 C 154.747 369.1 154.947 369.5 154.947 370.5 L 154.947 427.3 C 154.947 428.2 154.747 428.7 154.047 429.5 L 146.047 439.1 C 145.347 439.9 144.947 440.2 144.047 440.4 L 95.347 450.6 C 94.247 450.8 93.747 450.3 94.247 449 L 96.047 442.9 L 96.047 300.8 Z  M 115.847 308.9 L 115.847 358 L 135.447 353.9 L 135.447 304.8 L 115.847 308.9 Z  M 135.447 373.4 L 115.847 377.5 L 115.847 426.6 L 135.447 422.5 L 135.447 373.4 Z " fill="rgb(0,0,0)"/><path d=" M 220.947 413.8 L 223.647 421.9 C 224.147 422.9 223.647 423.7 222.547 424 L 201.847 428.4 C 200.447 428.7 200.047 428.1 200.447 426.9 L 202.047 422 L 198.847 389.7 L 186.747 392.2 L 183.547 425.8 L 184.947 430.1 C 185.447 431.1 184.947 431.9 183.847 432.2 L 162.947 436.6 C 161.847 436.8 161.347 436.3 161.847 435 L 164.547 425.8 L 182.347 281 L 181.247 277.6 C 180.747 276.6 181.247 275.8 182.347 275.5 L 203.247 271.1 C 204.347 270.9 204.847 271.4 204.347 272.7 L 203.247 276.6 L 220.947 413.8 Z  M 188.647 372 L 196.847 370.3 L 192.747 329.4 L 188.647 372 Z " fill="rgb(0,0,0)"/><path d=" M 291.047 390 C 291.947 389.8 292.647 390.3 292.447 391.3 L 290.447 408.1 C 290.247 409.3 289.747 409.8 288.647 410.1 L 233.147 421.8 C 232.047 422 231.547 421.5 232.047 420.2 L 233.847 414.4 L 233.847 272.1 L 232.047 266.8 C 231.547 265.8 232.047 265 233.147 264.7 L 254.047 260.3 C 255.147 260.1 255.647 260.6 255.447 261.8 L 253.647 267.9 L 253.647 397.9 L 291.047 390 Z " fill="rgb(0,0,0)"/><path d=" M 355.947 385.4 L 358.647 393.5 C 359.147 394.5 358.647 395.3 357.547 395.6 L 336.847 400 C 335.447 400.3 335.047 399.7 335.447 398.5 L 337.047 393.6 L 333.847 361.3 L 321.747 363.8 L 318.547 397.4 L 319.947 401.7 C 320.447 402.7 319.947 403.5 318.847 403.8 L 297.947 408.2 C 296.847 408.4 296.347 407.9 296.847 406.6 L 299.547 397.4 L 317.347 252.6 L 316.247 249.2 C 315.747 248.2 316.247 247.4 317.347 247.1 L 338.247 242.7 C 339.347 242.5 339.847 243 339.347 244.3 L 338.247 248.2 L 355.947 385.4 Z  M 323.647 343.6 L 331.847 341.9 L 327.747 301 L 323.647 343.6 Z " fill="rgb(0,0,0)"/><path d=" M 427.647 276.5 L 413.047 317.3 C 412.847 318.3 412.147 318.9 411.247 319 L 404.847 320.3 C 403.947 320.5 403.247 320.2 403.047 319.3 L 388.247 284.7 L 388.247 381.7 L 390.047 386.8 C 390.547 387.8 390.047 388.6 388.947 388.9 L 368.047 393.3 C 366.947 393.5 366.447 393 366.947 391.7 L 368.747 385.9 L 368.747 243.7 L 366.947 238.4 C 366.447 237.4 366.947 236.6 368.047 236.3 L 386.947 232.3 C 387.847 232.1 388.547 232.4 388.747 233.3 L 408.047 280.6 L 427.147 225.2 C 427.347 224.2 428.047 223.6 428.947 223.5 L 447.847 219.5 C 448.947 219.3 449.447 219.8 448.947 221.1 L 447.147 227.2 L 447.147 369.4 L 448.947 374.5 C 449.447 375.5 448.947 376.3 447.847 376.6 L 426.947 381 C 425.847 381.2 425.347 380.7 425.847 379.4 L 427.647 373.6 L 427.647 276.5 L 427.647 276.5 Z " fill="rgb(0,0,0)"/><path d=" M 520.347 359.7 C 520.147 360.9 519.647 361.4 518.547 361.7 L 463.047 373.4 C 461.947 373.6 461.447 373.1 461.947 371.8 L 463.747 365.7 L 463.747 223.5 L 461.947 218.4 C 461.447 217.4 461.947 216.6 463.047 216.3 L 518.547 204.6 C 519.647 204.4 520.147 204.7 520.347 205.8 L 522.347 221.7 C 522.547 222.6 521.847 223.4 520.947 223.6 L 483.147 231.5 L 483.147 280.6 L 495.447 278 L 501.147 275 C 502.247 274.3 502.947 274.6 502.947 275.8 L 502.947 296.7 C 502.947 297.8 502.247 298.4 501.147 298.2 L 495.447 297.6 L 483.147 300.2 L 483.147 349.3 L 520.947 341.4 C 521.847 341.2 522.547 341.7 522.347 342.7 L 520.347 359.7 Z " fill="rgb(0,0,0)"/><path d=" M 533.047 208.9 L 531.247 203.8 C 530.747 202.8 531.247 202 532.347 201.7 L 581.047 191.5 C 581.947 191.3 582.447 191.4 583.047 192 L 591.047 198.3 C 591.747 198.8 591.947 199.2 591.947 200.2 L 591.947 256.8 C 591.947 257.7 591.747 258.2 591.047 259 L 581.947 269.8 L 591.047 276.7 C 591.747 277.2 591.947 277.6 591.947 278.6 L 591.947 335.4 C 591.947 336.3 591.747 336.8 591.047 337.6 L 583.047 347.2 C 582.347 348 581.947 348.3 581.047 348.5 L 532.347 358.7 C 531.247 358.9 530.747 358.4 531.247 357.1 L 533.047 351 L 533.047 208.9 Z  M 552.847 217 L 552.847 266.1 L 572.447 262 L 572.447 212.9 L 552.847 217 Z  M 572.447 281.5 L 552.847 285.6 L 552.847 334.7 L 572.447 330.6 L 572.447 281.5 Z " fill="rgb(0,0,0)"/></g><g id="XMLID_5_"><path d=" M 339.987 90.474 C 339.912 90.549 339.837 90.699 339.837 90.774 L 339.837 96.848 C 339.837 97.148 339.987 97.223 340.287 97.223 L 343.736 97.223 C 343.811 97.223 343.961 97.223 344.036 97.298 C 344.111 97.373 344.186 97.448 344.186 97.598 L 344.186 99.247 C 344.186 99.547 344.036 99.622 343.736 99.622 L 340.287 99.622 C 339.987 99.622 339.837 99.772 339.837 99.997 L 339.837 106.745 C 339.837 107.045 339.987 107.12 340.212 107.12 L 343.062 107.12 C 343.286 107.12 343.361 106.97 343.361 106.745 C 343.361 106.445 343.511 106.22 343.736 105.995 C 343.961 105.846 344.336 105.771 344.786 105.771 L 345.911 105.771 L 345.911 108.77 C 345.911 108.995 345.836 109.145 345.686 109.295 C 345.536 109.445 345.386 109.52 345.161 109.52 L 343.361 109.52 L 337.738 109.52 L 336.088 109.52 L 336.088 108.77 C 336.088 108.32 336.163 108.02 336.238 107.795 C 336.313 107.57 336.463 107.42 336.688 107.345 C 336.913 107.195 337.063 106.97 337.063 106.745 L 337.063 90.699 C 337.063 90.549 336.988 90.399 336.913 90.324 C 336.838 90.249 336.763 90.174 336.688 90.099 C 336.463 90.024 336.313 89.875 336.238 89.65 C 336.163 89.425 336.088 89.125 336.088 88.75 L 336.088 88 L 345.236 88 C 345.461 88 345.611 88.075 345.761 88.225 C 345.911 88.375 345.986 88.525 345.986 88.675 L 345.986 91.749 L 344.936 91.749 C 344.561 91.749 344.186 91.674 343.886 91.599 C 343.586 91.524 343.436 91.299 343.436 90.924 C 343.436 90.774 343.436 90.699 343.361 90.624 C 343.286 90.549 343.211 90.474 343.062 90.474 L 340.287 90.474 C 340.137 90.399 340.062 90.399 339.987 90.474 Z " fill="rgb(0,0,0)"/></g><g id="XMLID_3_"><path d=" M 301.49 178.266 C 301.911 178.547 302.192 178.969 302.473 179.46 C 302.684 179.952 302.825 180.514 302.825 181.217 L 302.825 184.168 C 302.825 185.503 302.473 186.557 301.841 187.4 C 301.209 188.243 300.084 188.595 298.539 188.595 L 292.847 188.595 L 292.847 187.752 C 292.847 187.4 292.917 187.119 292.988 186.908 C 293.058 186.698 293.198 186.557 293.409 186.487 C 293.48 186.417 293.55 186.417 293.62 186.276 C 293.69 186.206 293.761 186.065 293.761 185.854 L 293.761 170.958 C 293.761 170.677 293.62 170.537 293.409 170.396 C 292.988 170.186 292.847 169.764 292.847 168.991 L 292.847 168.288 L 298.257 168.288 C 299.803 168.288 300.857 168.71 301.56 169.483 C 302.263 170.256 302.544 171.31 302.544 172.645 L 302.544 175.034 C 302.544 175.596 302.473 176.088 302.263 176.509 C 302.052 176.931 301.841 177.282 301.49 177.634 C 301.419 177.704 301.349 177.844 301.349 177.915 C 301.349 177.985 301.349 178.196 301.49 178.266 Z  M 296.36 176.65 C 296.36 176.861 296.501 177.001 296.712 177.001 L 298.187 177.001 C 298.749 177.001 299.171 176.79 299.452 176.439 C 299.733 176.088 299.874 175.596 299.874 174.964 L 299.874 172.715 C 299.874 172.083 299.733 171.591 299.452 171.169 C 299.171 170.818 298.749 170.607 298.187 170.607 L 296.712 170.607 C 296.571 170.607 296.501 170.677 296.431 170.748 C 296.36 170.818 296.36 170.958 296.36 171.029 L 296.36 176.65 Z  M 300.084 181.358 C 300.084 180.725 299.944 180.233 299.663 179.812 C 299.382 179.46 298.96 179.25 298.398 179.25 L 296.641 179.25 C 296.36 179.25 296.29 179.39 296.29 179.601 L 296.29 185.995 C 296.29 186.276 296.431 186.346 296.641 186.346 L 298.398 186.346 C 298.96 186.346 299.382 186.136 299.663 185.784 C 299.944 185.433 300.084 184.871 300.084 184.238 L 300.084 181.358 Z " fill="rgb(0,0,0)"/></g><g id="XMLID_2_"><path d=" M 382.26 185.085 L 382.26 185.085 C 382.26 185.286 382.26 185.42 382.327 185.486 C 382.394 185.553 382.461 185.62 382.528 185.687 C 382.661 185.821 382.795 185.955 382.929 186.156 C 383.063 186.356 383.13 186.557 383.13 186.892 L 383.13 187.695 L 378.847 187.695 L 378.847 186.892 C 378.847 186.624 378.914 186.356 379.048 186.156 C 379.182 185.955 379.316 185.821 379.516 185.687 C 379.583 185.62 379.65 185.553 379.717 185.486 C 379.784 185.42 379.784 185.286 379.784 185.152 L 379.784 185.085 L 379.784 170.764 C 379.784 170.564 379.784 170.497 379.717 170.43 C 379.65 170.363 379.583 170.296 379.516 170.229 C 379.382 170.095 379.249 169.961 379.115 169.761 C 378.981 169.56 378.914 169.359 378.914 169.025 L 378.914 168.288 L 383.197 168.288 L 383.197 169.025 C 383.197 169.292 383.13 169.56 382.996 169.761 C 382.862 169.961 382.728 170.095 382.595 170.229 C 382.528 170.296 382.461 170.363 382.394 170.43 C 382.327 170.497 382.327 170.631 382.327 170.764 L 382.327 185.085 L 382.26 185.085 Z " fill="rgb(0,0,0)"/></g><g id="Star_1_"><g id="XMLID_4_"><path d=" M 350.213 206.235 L 343.563 204.919 L 340.347 199 L 337.059 204.919 L 330.482 206.235 L 335.086 211.204 L 334.209 218 L 340.347 215.077 L 346.413 218 L 345.609 211.204 L 350.213 206.235 Z " fill-rule="evenodd" fill="rgb(0,0,0)"/></g></g><path d=" M 353.747 514.2 L 353.747 514.2 Z  M 344.024 527.814 C 348.243 528.492 353.317 530.389 358.226 533.181 C 363.24 536.039 367.5 539.49 370.304 542.833 C 373.27 546.446 374.24 549.681 372.946 551.946 C 372.245 553.186 370.628 554.588 366.745 554.588 C 362.054 554.588 355.53 552.485 349.275 548.926 C 344.26 546.069 340 542.618 337.196 539.275 C 334.231 535.662 333.26 532.426 334.554 530.162 C 335.07 529.29 336.08 528.272 338.136 527.801 C 338.42 526.437 339.631 525.417 341.079 525.417 C 342.531 525.417 343.744 526.444 344.024 527.814 M 338.337 529.682 C 337.302 529.956 336.561 530.429 336.172 531.078 C 335.309 532.588 336.226 535.123 338.598 538.088 C 341.24 541.324 345.338 544.613 350.137 547.309 C 356.123 550.706 362.324 552.755 366.691 552.755 C 369.01 552.755 370.628 552.162 371.275 551.083 C 372.137 549.574 371.221 547.039 368.848 544.074 C 366.206 540.838 362.108 537.549 357.309 534.853 C 352.613 532.145 347.785 530.334 343.818 529.687 C 343.349 530.732 342.298 531.456 341.079 531.456 C 339.858 531.456 338.805 530.73 338.337 529.682 M 344.024 527.814 Z  M 353.747 514.2 L 353.747 514.2 Z  M 353.747 514.2 C 365.947 514.2 378.847 520.4 378.847 520.4 C 378.847 520.4 378.847 539 378.847 548.6 C 378.847 560.2 353.947 572.8 353.947 572.8 C 353.947 572.8 328.847 560.5 328.847 548.9 C 328.847 544.1 328.847 520.6 328.847 520.6 C 328.847 520.6 341.647 514.2 353.747 514.2 M 360.947 543.9 M 353.75 537.01 C 355.961 537.01 357.794 538.843 357.794 541.054 C 357.794 543.265 356.015 545.098 353.75 545.098 C 351.539 545.098 349.706 543.319 349.706 541.054 C 349.706 538.843 351.486 537.01 353.75 537.01 M 353.747 514.2 Z  M 367.662 536.74 C 367.662 535.074 369.015 533.721 370.682 533.721 C 372.348 533.721 373.701 535.074 373.701 536.74 C 373.701 538.407 372.348 539.76 370.682 539.76 C 369.015 539.76 367.662 538.407 367.662 536.74 Z  M 353.747 514.2 L 353.747 514.2 Z  M 370.304 542.833 L 370.304 542.833 Z  M 353.75 519 L 353.75 519 Z  M 347.665 530.599 C 347.383 531.821 347.148 533.146 346.969 534.555 C 347.651 534.106 348.348 533.665 349.059 533.235 C 349.835 532.775 350.615 532.337 351.393 531.937 C 350.121 531.41 348.872 530.962 347.665 530.599 Z  M 348.142 528.781 C 349.547 523.81 351.716 520.833 353.75 520.833 C 355.752 520.833 357.885 523.717 359.29 528.545 C 357.451 529.13 355.527 529.897 353.575 530.833 C 351.722 529.992 349.893 529.306 348.142 528.781 Z  M 346.982 547.541 C 347.167 549.037 347.419 550.429 347.723 551.709 C 348.996 551.297 350.315 550.792 351.66 550.195 C 350.864 549.805 350.067 549.377 349.275 548.926 C 348.489 548.479 347.722 548.017 346.982 547.541 Z  M 346.735 545.189 C 346.633 543.868 346.579 542.487 346.579 541.054 C 346.579 539.662 346.63 538.32 346.751 537.067 C 347.778 536.316 348.883 535.597 350.03 534.907 C 351.236 534.192 352.447 533.533 353.647 532.934 C 354.865 533.509 356.091 534.151 357.309 534.853 C 358.521 535.534 359.688 536.252 360.771 537.012 C 360.87 538.303 360.922 539.654 360.922 541.054 C 360.922 542.437 360.871 543.771 360.751 545.018 C 359.692 545.795 358.549 546.54 357.363 547.255 C 356.172 547.961 354.978 548.611 353.792 549.204 C 352.577 548.633 351.353 547.999 350.137 547.309 C 348.947 546.64 347.8 545.935 346.735 545.189 M 353.75 537.01 C 351.486 537.01 349.706 538.843 349.706 541.054 C 349.706 543.319 351.539 545.098 353.75 545.098 C 356.015 545.098 357.794 543.265 357.794 541.054 C 357.794 538.843 355.961 537.01 353.75 537.01 M 346.735 545.189 Z  M 355.846 531.915 C 357.191 531.324 358.51 530.822 359.781 530.414 C 360.083 531.69 360.335 533.077 360.519 534.567 C 359.778 534.091 359.011 533.629 358.226 533.181 C 357.435 532.732 356.641 532.305 355.846 531.915 Z  M 359.36 553.327 C 357.954 558.297 355.784 561.275 353.75 561.275 C 351.74 561.275 349.597 558.366 348.193 553.496 C 350.01 552.917 351.911 552.16 353.838 551.236 C 355.721 552.094 357.581 552.794 359.36 553.327 Z  M 359.83 551.561 C 360.122 550.29 360.365 548.914 360.549 547.449 C 359.846 547.916 359.124 548.373 358.387 548.819 C 357.581 549.297 356.77 549.752 355.962 550.166 C 357.281 550.713 358.579 551.181 359.83 551.561 Z  M 362.733 538.373 C 362.787 539.243 362.809 540.141 362.809 541.054 C 362.809 541.898 362.791 542.729 362.762 543.551 C 363.866 542.69 364.895 541.81 365.821 540.92 C 364.883 540.055 363.847 539.201 362.733 538.373 Z  M 371.084 533.75 C 371.504 532.522 371.496 531.493 371.059 530.755 C 370.304 529.407 368.309 529.137 366.745 529.137 C 365.217 529.137 363.475 529.395 361.594 529.892 C 362.036 531.746 362.369 533.781 362.567 535.954 C 364.261 537.121 365.799 538.349 367.147 539.595 C 367.517 539.209 367.865 538.822 368.195 538.436 C 367.856 537.957 367.662 537.371 367.662 536.74 C 367.662 535.074 369.015 533.721 370.682 533.721 C 370.818 533.721 370.953 533.73 371.084 533.75 Z  M 344.773 543.836 C 344.715 542.934 344.691 542.002 344.691 541.054 C 344.691 540.196 344.71 539.352 344.742 538.518 C 343.606 539.4 342.549 540.303 341.599 541.216 C 342.56 542.106 343.627 542.984 344.773 543.836 Z  M 344.932 546.153 C 345.13 548.337 345.464 550.38 345.907 552.24 C 343.983 552.757 342.205 553.025 340.647 553.025 C 339.137 553.025 337.142 552.701 336.334 551.407 C 335.471 549.951 336.28 547.363 338.652 544.397 C 339.154 543.76 339.71 543.12 340.323 542.483 C 341.676 543.739 343.225 544.977 344.932 546.153 Z  M 345.873 530.112 C 345.451 531.906 345.14 533.881 344.95 535.982 C 343.201 537.238 341.6 538.552 340.209 539.89 C 342.784 542.523 346.228 545.113 350.137 547.309 C 354.064 549.538 358.084 551.186 361.612 552.048 C 362.049 550.214 362.367 548.187 362.559 546.028 C 364.26 544.802 365.822 543.521 367.181 542.216 C 364.613 539.602 361.19 537.033 357.309 534.853 C 353.396 532.597 349.392 530.963 345.873 530.112 M 353.75 537.01 C 351.486 537.01 349.706 538.843 349.706 541.054 C 349.706 543.319 351.539 545.098 353.75 545.098 C 356.015 545.098 357.794 543.265 357.794 541.054 C 357.794 538.843 355.961 537.01 353.75 537.01 M 345.873 530.112 Z  M 372.776 534.578 C 373.479 532.686 373.465 531.024 372.677 529.73 C 371.976 528.544 370.412 527.196 366.745 527.196 C 365.065 527.196 363.155 527.48 361.099 528.027 C 359.466 522.523 356.804 519 353.75 519 C 350.647 519 347.948 522.618 346.339 528.293 C 350.031 529.191 354.185 530.882 358.226 533.181 C 362.275 535.489 365.831 538.183 368.5 540.896 C 368.926 540.461 369.321 540.025 369.69 539.589 C 368.509 539.181 367.662 538.059 367.662 536.74 C 367.662 535.074 369.015 533.721 370.682 533.721 C 371.498 533.721 372.239 534.045 372.776 534.578 Z  M 361.162 553.815 C 359.553 559.489 356.854 563.108 353.75 563.108 C 350.681 563.108 348.007 559.569 346.378 554.018 C 344.31 554.571 342.39 554.858 340.701 554.858 C 337.035 554.858 335.471 553.51 334.77 552.324 C 333.422 550.113 334.338 546.824 337.196 543.157 C 337.716 542.491 338.295 541.823 338.946 541.159 C 341.623 543.89 345.2 546.604 349.275 548.926 C 353.316 551.226 357.47 552.917 361.162 553.815 Z " fill-rule="evenodd" fill="rgb(0,0,0)"/><g id="001-radiation"><path d=" M 401.164 158.344 C 399.685 152.587 396.678 147.319 392.461 143.102 C 386.782 137.424 379.414 134.05 371.49 133.446 C 371.216 132.921 370.928 132.404 370.628 131.895 C 372.569 127.672 373.653 122.978 373.653 118.034 C 373.653 112.014 372.026 106.111 368.947 100.963 C 368.521 100.251 367.619 99.985 366.875 100.352 C 366.13 100.719 365.792 101.596 366.097 102.368 C 367.386 105.623 368.039 109.049 368.039 112.552 C 368.039 116.96 366.999 121.127 365.159 124.83 C 358.8 118.475 350.023 114.54 340.344 114.54 C 330.665 114.54 321.889 118.475 315.53 124.83 C 313.69 121.127 312.65 116.96 312.65 112.552 C 312.65 109.05 313.304 105.623 314.592 102.366 C 314.898 101.595 314.559 100.717 313.815 100.351 C 313.071 99.984 312.168 100.25 311.742 100.962 C 308.663 106.11 307.036 112.014 307.036 118.034 C 307.036 122.978 308.12 127.672 310.06 131.896 C 309.76 132.404 309.473 132.922 309.198 133.446 C 301.274 134.05 293.906 137.424 288.227 143.102 C 283.974 147.356 280.951 152.678 279.487 158.494 C 279.284 159.299 279.733 160.125 280.519 160.392 C 281.304 160.659 282.164 160.279 282.495 159.516 C 283.884 156.308 285.845 153.425 288.32 150.949 C 293.07 146.199 299.243 143.395 305.876 142.918 C 305.45 145.101 305.224 147.354 305.224 149.66 C 305.224 166.225 316.753 180.146 332.208 183.826 C 330.957 186.106 329.378 188.224 327.488 190.115 C 325.01 192.592 322.126 194.552 318.914 195.942 C 318.152 196.272 317.771 197.132 318.038 197.918 C 318.262 198.577 318.879 198.999 319.547 198.999 C 319.675 198.999 319.806 198.984 319.936 198.951 C 325.754 197.486 331.078 194.463 335.334 190.208 C 337.02 188.522 338.482 186.697 339.73 184.771 C 339.935 184.775 340.139 184.779 340.344 184.779 C 340.544 184.779 340.744 184.775 340.945 184.772 C 342.206 186.711 343.679 188.534 345.353 190.208 C 349.61 194.465 354.934 197.488 360.751 198.951 C 360.881 198.984 361.012 199 361.141 199 C 361.809 199 362.425 198.577 362.649 197.918 C 362.916 197.132 362.535 196.273 361.773 195.943 C 358.562 194.553 355.677 192.592 353.2 190.115 C 351.31 188.225 349.731 186.107 348.479 183.826 C 363.934 180.146 375.463 166.225 375.463 149.66 C 375.463 147.355 375.237 145.101 374.811 142.918 C 381.445 143.395 387.617 146.199 392.367 150.949 C 394.843 153.425 396.803 156.308 398.193 159.517 C 398.461 160.136 399.082 160.508 399.724 160.476 C 400.575 160.444 401.256 159.743 401.256 158.883 C 401.257 158.694 401.224 158.512 401.164 158.344 Z  M 334.272 179.027 C 320.639 176.212 310.358 164.114 310.358 149.66 C 310.358 147.38 310.622 145.162 311.106 143.026 C 317.292 143.734 323.02 146.48 327.488 150.949 C 327.864 151.324 328.223 151.711 328.574 152.103 C 328.955 155.697 330.944 158.81 333.808 160.712 C 334.981 163.809 335.6 167.122 335.6 170.532 C 335.601 173.46 335.142 176.317 334.272 179.027 Z  M 340.345 139.007 C 338.764 139.007 337.257 139.319 335.879 139.881 C 328.753 138.721 322.535 134.833 318.329 129.327 C 323.811 123.396 331.65 118.61 340.345 118.61 C 349.04 118.61 356.879 123.396 362.361 129.327 C 358.155 134.833 351.936 138.721 344.811 139.881 C 343.433 139.319 341.925 139.007 340.345 139.007 Z  M 346.418 179.027 C 345.548 176.317 345.089 173.461 345.089 170.532 C 345.089 167.122 345.709 163.808 346.882 160.711 C 349.746 158.81 351.735 155.697 352.115 152.104 C 352.466 151.711 352.826 151.324 353.201 150.949 C 357.669 146.48 363.397 143.734 369.583 143.026 C 370.067 145.161 370.331 147.379 370.331 149.659 C 370.331 164.114 360.051 176.212 346.418 179.027 Z " fill="rgb(0,0,0)"/></g></g></svg>